<svg id="line" xmlns="http://www.w3.org/2000/svg" viewBox="0 0 64 64"><defs><style>.cls-1{fill:#231f20;}</style></defs><title>1</title><path class="cls-1" d="M59.27148,7.84619,56.207,4.78174a2.68214,2.68214,0,0,0-3.80176.02688c-.77948.93565-5.56068,5.36594-5.88973,6.42716l-1.05692,2.33844a.99442.99442,0,0,0-.316.21l-9.246,9.246c-2.55666-1.91445-9.49655-4.295-12.59481.6228l-1.96287,3.17267A9.06323,9.06323,0,0,1,16.78906,30.544l-4.77734,1.76367A12.35343,12.35343,0,0,0,4.792,39.01025C3.47656,42.18213,3.05469,47.106,8.4834,52.58252a18.73316,18.73316,0,0,0,8.05273,6.5791c6.21293,2.6389,14.22891-1.03786,15.96582-7.68274l.874-3.57751a8.44477,8.44477,0,0,1,4.4873-5.58985c4.27346-1.64182,6.86014-6.29373,4.869-10.60751l-1.91784-3.25613,9.29981-9.72376a.97053.97053,0,0,0,.14569-.22894c1.04408-.44523,3.33914-1.06136,4.10916-1.97173l4.90335-4.90236A2.67445,2.67445,0,0,0,59.27148,7.84619ZM40.9707,32.65283c1.42454,3.364-.75013,6.63962-3.99036,7.86416a10.446,10.446,0,0,0-5.54772,6.90977c-.53923,2.00353-.93326,4.96083-2.39656,6.61024a10.27456,10.27456,0,0,1-11.75774,3.2672,16.95892,16.95892,0,0,1-7.16992-5.89111.99618.99618,0,0,0-.13672-.17041C3.52353,45.327,5.24935,37.03184,12.70525,34.18346l4.77717-1.76354a11.07251,11.07251,0,0,0,5.55762-4.542L25.002,24.70557c2.1826-3.41363,7.387-1.67474,9.4458-.22649l-5.43408,5.434a5.94663,5.94663,0,0,0-4.78418,1.70312c-3.7748,3.5923-.98368,10.36072,4.23261,10.22159A6.0132,6.0132,0,0,0,34.39483,35.16l4.98359-5.2107Zm-8.5625,2.73145c.45535,5.55109-7.7288,6.04359-7.93262.46865C24.54571,30.893,31.76211,30.48114,32.4082,35.38428Zm1.29041-2.39008a5.805,5.805,0,0,0-2.49587-2.44206L45.84961,15.90527l2.14355,2.14356ZM57.85742,10.20752c-.50888.40093-5.15352,5.43615-5.72259,5.43365L49.44,16.66754l-2.19342-2.19342,1.09131-2.41455c-.1633-.219,5.28568-5.56639,5.50095-5.85649a.67348.67348,0,0,1,.95413-.00727l3.06445,3.06444A.67135.67135,0,0,1,57.85742,10.20752Z"/><path class="cls-1" d="M13.2832,45.021a1.00008,1.00008,0,0,0-1.414,1.4141L17.87207,52.438a1.00008,1.00008,0,0,0,1.414-1.41411Z"/><path class="cls-1" d="M15.95605,42.34863a1.00008,1.00008,0,0,0-1.414,1.41411l6.00288,6.0024a.99988.99988,0,1,0,1.414-1.41408Z"/></svg>